<mxfile host="Electron" agent="Mozilla/5.0 (Macintosh; Intel Mac OS X 10_15_7) AppleWebKit/537.36 (KHTML, like Gecko) draw.io/24.7.17 Chrome/128.0.6613.36 Electron/32.0.1 Safari/537.36" version="24.7.17">
  <diagram name="Page-1" id="LDDVS30_FCt_WKraPCC-">
    <mxGraphModel dx="1263" dy="768" grid="1" gridSize="10" guides="1" tooltips="1" connect="1" arrows="1" fold="1" page="1" pageScale="1" pageWidth="1169" pageHeight="827" math="0" shadow="0">
      <root>
        <mxCell id="0" />
        <mxCell id="1" parent="0" />
        <mxCell id="ta-9Zewc6l0BBQKFh38Z-1" value="&lt;span style=&quot;font-weight: 700;&quot;&gt;PPU Module&lt;/span&gt;" style="rounded=0;whiteSpace=wrap;html=1;fillColor=#d5e8d4;strokeColor=#82b366;align=right;verticalAlign=bottom;fontFamily=Times New Roman;" vertex="1" parent="1">
          <mxGeometry x="320" y="190" width="200" height="160" as="geometry" />
        </mxCell>
        <mxCell id="ta-9Zewc6l0BBQKFh38Z-2" value="&lt;div style=&quot;font-weight: normal; font-size: 12px; line-height: 18px; white-space: pre;&quot;&gt;&lt;div&gt;&lt;span style=&quot;&quot;&gt;clk&lt;/span&gt;&lt;/div&gt;&lt;div&gt;rst&lt;/div&gt;&lt;div&gt;sync&lt;/div&gt;&lt;div&gt;mode[2:0]&lt;/div&gt;&lt;div&gt;data_i&lt;span style=&quot;background-color: initial;&quot;&gt;[7:0]&lt;/span&gt;&lt;/div&gt;&lt;div&gt;stb_i&lt;/div&gt;&lt;div&gt;ack_i&lt;/div&gt;&lt;/div&gt;" style="text;whiteSpace=wrap;html=1;fontColor=default;labelBackgroundColor=none;align=left;verticalAlign=middle;fontFamily=Times New Roman;" vertex="1" parent="1">
          <mxGeometry x="320" y="190" width="110" height="160" as="geometry" />
        </mxCell>
        <mxCell id="ta-9Zewc6l0BBQKFh38Z-5" value="&lt;span style=&quot;font-weight: 700;&quot;&gt;VGA Driver&lt;/span&gt;" style="rounded=0;whiteSpace=wrap;html=1;fillColor=#d5e8d4;strokeColor=#82b366;verticalAlign=bottom;align=right;fontFamily=Times New Roman;" vertex="1" parent="1">
          <mxGeometry x="720" y="190" width="120" height="160" as="geometry" />
        </mxCell>
        <mxCell id="ta-9Zewc6l0BBQKFh38Z-6" value="&lt;div style=&quot;forced-color-adjust: none; font-size: 12px; font-style: normal; font-variant-ligatures: normal; font-variant-caps: normal; font-weight: 400; letter-spacing: normal; orphans: 2; text-indent: 0px; text-transform: none; widows: 2; word-spacing: 0px; -webkit-text-stroke-width: 0px; white-space: pre; text-decoration-thickness: initial; text-decoration-style: initial; text-decoration-color: initial;&quot;&gt;data_o&lt;span style=&quot;forced-color-adjust: none;&quot;&gt;[7:0]&lt;/span&gt;&lt;/div&gt;&lt;div style=&quot;forced-color-adjust: none; font-size: 12px; font-style: normal; font-variant-ligatures: normal; font-variant-caps: normal; font-weight: 400; letter-spacing: normal; orphans: 2; text-indent: 0px; text-transform: none; widows: 2; word-spacing: 0px; -webkit-text-stroke-width: 0px; white-space: pre; text-decoration-thickness: initial; text-decoration-style: initial; text-decoration-color: initial;&quot;&gt;stb_o&lt;/div&gt;&lt;div style=&quot;forced-color-adjust: none; font-size: 12px; font-style: normal; font-variant-ligatures: normal; font-variant-caps: normal; font-weight: 400; letter-spacing: normal; orphans: 2; text-indent: 0px; text-transform: none; widows: 2; word-spacing: 0px; -webkit-text-stroke-width: 0px; white-space: pre; text-decoration-thickness: initial; text-decoration-style: initial; text-decoration-color: initial;&quot;&gt;ack_o&lt;/div&gt;" style="text;whiteSpace=wrap;html=1;align=right;fontColor=default;labelBackgroundColor=none;verticalAlign=top;fontFamily=Times New Roman;" vertex="1" parent="1">
          <mxGeometry x="430" y="190" width="90" height="60" as="geometry" />
        </mxCell>
        <mxCell id="ta-9Zewc6l0BBQKFh38Z-8" value="" style="endArrow=classicThin;html=1;rounded=0;endFill=1;fontFamily=Times New Roman;" edge="1" parent="1">
          <mxGeometry width="50" height="50" relative="1" as="geometry">
            <mxPoint x="520" y="219.8" as="sourcePoint" />
            <mxPoint x="560" y="219.8" as="targetPoint" />
          </mxGeometry>
        </mxCell>
        <mxCell id="ta-9Zewc6l0BBQKFh38Z-9" value="" style="endArrow=none;html=1;rounded=0;endFill=0;startArrow=classicThin;startFill=1;fontFamily=Times New Roman;" edge="1" parent="1">
          <mxGeometry width="50" height="50" relative="1" as="geometry">
            <mxPoint x="520" y="234.8" as="sourcePoint" />
            <mxPoint x="560" y="234.8" as="targetPoint" />
          </mxGeometry>
        </mxCell>
        <mxCell id="ta-9Zewc6l0BBQKFh38Z-12" value="&lt;h1 style=&quot;margin-top: 0px;&quot;&gt;&lt;span style=&quot;background-color: initial; font-size: 12px;&quot;&gt;VGA Driver&lt;/span&gt;&lt;/h1&gt;&lt;div&gt;&lt;div style=&quot;white-space: pre;&quot;&gt;&lt;span style=&quot;background-color: initial;&quot;&gt;wb_data: get pixel info from PPU&lt;/span&gt;&lt;br&gt;&lt;/div&gt;&lt;div style=&quot;white-space: pre;&quot;&gt;&lt;div style=&quot;line-height: 18px;&quot;&gt;&lt;font color=&quot;#ff0000&quot;&gt;clk_pix: &lt;span style=&quot;white-space: normal; background-color: initial;&quot;&gt;clock sync at rising edge&lt;/span&gt;&lt;/font&gt;&lt;/div&gt;&lt;div style=&quot;line-height: 18px;&quot;&gt;&lt;div style=&quot;line-height: 18px;&quot;&gt;&lt;font color=&quot;#ff0000&quot;&gt;rst_pix: &lt;span style=&quot;white-space: normal; background-color: initial;&quot;&gt;reset the vga driver&lt;/span&gt;&lt;/font&gt;&lt;/div&gt;&lt;div style=&quot;line-height: 18px;&quot;&gt;&lt;div style=&quot;line-height: 18px;&quot;&gt;&lt;font color=&quot;#009900&quot;&gt;&lt;span style=&quot;background-color: initial;&quot;&gt;vga_r/&lt;/span&gt;&lt;span style=&quot;background-color: initial;&quot;&gt;vga_g/&lt;/span&gt;&lt;span style=&quot;background-color: initial;&quot;&gt;vga_b&lt;/span&gt;&lt;span style=&quot;background-color: initial;&quot;&gt;: output rgb to vga module&lt;/span&gt;&lt;/font&gt;&lt;/div&gt;&lt;div style=&quot;line-height: 18px;&quot;&gt;&lt;font color=&quot;#009900&quot;&gt;hsync: horizontal sync &lt;span style=&quot;background-color: initial;&quot;&gt;to vga module&lt;/span&gt;&lt;/font&gt;&lt;/div&gt;&lt;div style=&quot;line-height: 18px;&quot;&gt;&lt;font color=&quot;#009900&quot;&gt;vsync: vertical sync &lt;span style=&quot;background-color: initial;&quot;&gt;to vga module&lt;/span&gt;&lt;/font&gt;&lt;/div&gt;&lt;div style=&quot;line-height: 18px;&quot;&gt;&lt;div style=&quot;line-height: 18px;&quot;&gt;&lt;div style=&quot;line-height: 18px;&quot;&gt;&lt;div style=&quot;line-height: 18px;&quot;&gt;&lt;div style=&quot;line-height: 18px;&quot;&gt;&lt;div style=&quot;line-height: 18px;&quot;&gt;&lt;font color=&quot;#808080&quot;&gt;sx: only for simulation&lt;/font&gt;&lt;/div&gt;&lt;div style=&quot;line-height: 18px;&quot;&gt;&lt;font color=&quot;#808080&quot;&gt;xy&lt;span style=&quot;background-color: initial;&quot;&gt;: only for simulation&lt;/span&gt;&lt;/font&gt;&lt;/div&gt;&lt;div style=&quot;line-height: 18px;&quot;&gt;&lt;font color=&quot;#808080&quot;&gt;de&lt;span style=&quot;background-color: initial;&quot;&gt;: only for simulation&lt;/span&gt;&lt;/font&gt;&lt;/div&gt;&lt;/div&gt;&lt;/div&gt;&lt;/div&gt;&lt;/div&gt;&lt;/div&gt;&lt;/div&gt;&lt;/div&gt;&lt;/div&gt;&lt;/div&gt;" style="text;html=1;whiteSpace=wrap;overflow=hidden;rounded=0;fontFamily=Times New Roman;align=left;" vertex="1" parent="1">
          <mxGeometry x="720" y="360" width="240" height="230" as="geometry" />
        </mxCell>
        <mxCell id="ta-9Zewc6l0BBQKFh38Z-13" value="&lt;h1 style=&quot;margin-top: 0px;&quot;&gt;&lt;font style=&quot;font-size: 12px;&quot;&gt;PPU Module&lt;/font&gt;&lt;/h1&gt;&lt;div&gt;&lt;font color=&quot;#ff0000&quot;&gt;clk: clock sync at rising edge&lt;/font&gt;&lt;/div&gt;&lt;div&gt;&lt;font color=&quot;#ff0000&quot;&gt;rst: reset the PPU when &#39;1&#39;&lt;/font&gt;&lt;/div&gt;&lt;div&gt;&lt;font color=&quot;#0000ff&quot;&gt;sync: frame sync when &#39;1&#39;&lt;/font&gt;&lt;/div&gt;&lt;div&gt;&lt;font color=&quot;#0000ff&quot;&gt;mode: atm we have 5 pattern modes&lt;/font&gt;&lt;/div&gt;&lt;div&gt;&lt;font color=&quot;#0000ff&quot;&gt;&lt;span style=&quot;white-space: pre;&quot;&gt;data_i: used to for varying patterns in each mode&lt;/span&gt;&lt;br&gt;&lt;/font&gt;&lt;/div&gt;&lt;div&gt;&lt;font color=&quot;#0000ff&quot;&gt;&lt;span style=&quot;white-space: pre;&quot;&gt;stb_i: &#39;1&#39; means data_i is ready for PPU&lt;/span&gt;&lt;/font&gt;&lt;/div&gt;&lt;div&gt;&lt;font color=&quot;#0000ff&quot;&gt;&lt;span style=&quot;white-space: pre;&quot;&gt;ack_i: &#39;1&#39; means PPU is ready for the next data_i&lt;/span&gt;&lt;/font&gt;&lt;/div&gt;&lt;div&gt;&lt;font&gt;&lt;span style=&quot;white-space: pre;&quot;&gt;&lt;br&gt;&lt;/span&gt;&lt;/font&gt;&lt;/div&gt;&lt;div&gt;&lt;div style=&quot;white-space: pre;&quot;&gt;data_o: pixel, RGB info to HDMI driver&lt;/div&gt;&lt;div style=&quot;white-space: pre;&quot;&gt;&lt;font color=&quot;#808080&quot;&gt;stb_o: indicate data of current pixel, &lt;span style=&quot;background-color: initial;&quot;&gt;currently not used&lt;/span&gt;&lt;/font&gt;&lt;/div&gt;&lt;div style=&quot;white-space: pre;&quot;&gt;&lt;font color=&quot;#0000ff&quot;&gt;ack_o: Must always give &#39;1&#39;&lt;/font&gt;&lt;/div&gt;&lt;/div&gt;" style="text;html=1;whiteSpace=wrap;overflow=hidden;rounded=0;fontFamily=Times New Roman;" vertex="1" parent="1">
          <mxGeometry x="320" y="360" width="280" height="230" as="geometry" />
        </mxCell>
        <mxCell id="ta-9Zewc6l0BBQKFh38Z-15" value="&lt;div style=&quot;forced-color-adjust: none; font-size: 12px; font-style: normal; font-variant-ligatures: normal; font-variant-caps: normal; font-weight: 400; letter-spacing: normal; orphans: 2; text-indent: 0px; text-transform: none; widows: 2; word-spacing: 0px; -webkit-text-stroke-width: 0px; white-space: pre; text-decoration-thickness: initial; text-decoration-style: initial; text-decoration-color: initial;&quot;&gt;&lt;div style=&quot;line-height: 18px;&quot;&gt;&lt;span style=&quot;&quot;&gt;vga_r[1:0]&lt;/span&gt;&lt;br&gt;&lt;/div&gt;&lt;div style=&quot;line-height: 18px;&quot;&gt;&lt;div style=&quot;line-height: 18px;&quot;&gt;&lt;div style=&quot;line-height: 18px;&quot;&gt;&lt;div style=&quot;line-height: 18px;&quot;&gt;&lt;div style=&quot;line-height: 18px;&quot;&gt;vga_g&lt;span style=&quot;&quot;&gt;[1:0]&lt;/span&gt;&lt;/div&gt;&lt;div style=&quot;line-height: 18px;&quot;&gt;&lt;div style=&quot;line-height: 18px;&quot;&gt;vga_b&lt;span style=&quot;&quot;&gt;[1:0]&lt;/span&gt;&lt;/div&gt;&lt;div style=&quot;line-height: 18px;&quot;&gt;sx[9:0]&lt;/div&gt;&lt;div style=&quot;line-height: 18px;&quot;&gt;sy&lt;span style=&quot;&quot;&gt;[9:0]&lt;/span&gt;&lt;/div&gt;&lt;div style=&quot;line-height: 18px;&quot;&gt;&lt;span style=&quot;&quot;&gt;hsync&lt;/span&gt;&lt;br&gt;&lt;/div&gt;&lt;div style=&quot;line-height: 18px;&quot;&gt;&lt;div style=&quot;line-height: 18px;&quot;&gt;vsync&lt;/div&gt;&lt;div style=&quot;line-height: 18px;&quot;&gt;&lt;span style=&quot;&quot;&gt;de&lt;/span&gt;&lt;br&gt;&lt;/div&gt;&lt;/div&gt;&lt;/div&gt;&lt;/div&gt;&lt;/div&gt;&lt;/div&gt;&lt;/div&gt;&lt;/div&gt;" style="text;whiteSpace=wrap;html=1;align=right;fontColor=default;labelBackgroundColor=none;verticalAlign=middle;strokeColor=none;fontFamily=Times New Roman;" vertex="1" parent="1">
          <mxGeometry x="780" y="190" width="60" height="150" as="geometry" />
        </mxCell>
        <mxCell id="ta-9Zewc6l0BBQKFh38Z-16" value="&#39;1&#39;" style="text;html=1;align=left;verticalAlign=middle;whiteSpace=wrap;rounded=0;fontFamily=Times New Roman;" vertex="1" parent="1">
          <mxGeometry x="560" y="220" width="20" height="30" as="geometry" />
        </mxCell>
        <mxCell id="ta-9Zewc6l0BBQKFh38Z-17" value="open" style="text;html=1;align=left;verticalAlign=middle;whiteSpace=wrap;rounded=0;fontFamily=Times New Roman;" vertex="1" parent="1">
          <mxGeometry x="560" y="205" width="30" height="30" as="geometry" />
        </mxCell>
        <mxCell id="ta-9Zewc6l0BBQKFh38Z-19" value="&lt;div style=&quot;forced-color-adjust: none; font-size: 12px; font-style: normal; font-variant-ligatures: normal; font-variant-caps: normal; font-weight: 400; letter-spacing: normal; orphans: 2; text-indent: 0px; text-transform: none; widows: 2; word-spacing: 0px; -webkit-text-stroke-width: 0px; white-space: pre; text-decoration-thickness: initial; text-decoration-style: initial; text-decoration-color: initial;&quot;&gt;&lt;span style=&quot;background-color: initial;&quot;&gt;wb_data&lt;/span&gt;&lt;br&gt;&lt;/div&gt;&lt;div style=&quot;forced-color-adjust: none; font-size: 12px; font-style: normal; font-variant-ligatures: normal; font-variant-caps: normal; font-weight: 400; letter-spacing: normal; orphans: 2; text-indent: 0px; text-transform: none; widows: 2; word-spacing: 0px; -webkit-text-stroke-width: 0px; white-space: pre; text-decoration-thickness: initial; text-decoration-style: initial; text-decoration-color: initial;&quot;&gt;&lt;div style=&quot;line-height: 18px;&quot;&gt;clk_pix&lt;/div&gt;&lt;div style=&quot;line-height: 18px;&quot;&gt;&lt;div style=&quot;line-height: 18px;&quot;&gt;rst_pix&lt;/div&gt;&lt;/div&gt;&lt;/div&gt;" style="text;whiteSpace=wrap;html=1;align=left;fontColor=default;labelBackgroundColor=none;verticalAlign=top;fontFamily=Times New Roman;" vertex="1" parent="1">
          <mxGeometry x="720" y="190" width="90" height="60" as="geometry" />
        </mxCell>
        <mxCell id="ta-9Zewc6l0BBQKFh38Z-20" style="edgeStyle=orthogonalEdgeStyle;rounded=0;orthogonalLoop=1;jettySize=auto;html=1;exitX=1;exitY=0.25;exitDx=0;exitDy=0;entryX=0;entryY=0.25;entryDx=0;entryDy=0;" edge="1" parent="1" source="ta-9Zewc6l0BBQKFh38Z-6" target="ta-9Zewc6l0BBQKFh38Z-19">
          <mxGeometry relative="1" as="geometry">
            <mxPoint x="710" y="235" as="targetPoint" />
            <Array as="points">
              <mxPoint x="670" y="205" />
              <mxPoint x="670" y="205" />
            </Array>
          </mxGeometry>
        </mxCell>
        <mxCell id="ta-9Zewc6l0BBQKFh38Z-23" value="&lt;h1 style=&quot;margin-top: 0px;&quot;&gt;&lt;span style=&quot;background-color: initial; font-size: 12px;&quot;&gt;Color Scheme Explanation&lt;/span&gt;&lt;/h1&gt;&lt;div&gt;&lt;font color=&quot;#ff0000&quot;&gt;Red: critical signals&lt;/font&gt;&lt;/div&gt;&lt;div&gt;&lt;font color=&quot;#009900&quot;&gt;Green: signals &lt;b style=&quot;&quot;&gt;must&lt;/b&gt; to ASIC&#39;s pins&lt;br&gt;&lt;/font&gt;&lt;/div&gt;&lt;div&gt;&lt;font color=&quot;#0000ff&quot;&gt;Blue: signals assuming connects to eFPGA&lt;/font&gt;&lt;/div&gt;&lt;div&gt;black: signals connects PPU and VGA module&lt;/div&gt;&lt;div&gt;&lt;font color=&quot;#808080&quot;&gt;gray: can be removed or current needed for simulation&lt;/font&gt;&lt;/div&gt;&lt;div&gt;&lt;font color=&quot;#0000ff&quot;&gt;&lt;br&gt;&lt;/font&gt;&lt;/div&gt;&lt;div&gt;&lt;font color=&quot;#0000ff&quot;&gt;&amp;nbsp;&lt;/font&gt;&lt;/div&gt;" style="text;html=1;whiteSpace=wrap;overflow=hidden;rounded=0;fontFamily=Times New Roman;" vertex="1" parent="1">
          <mxGeometry x="320" y="600" width="640" height="200" as="geometry" />
        </mxCell>
      </root>
    </mxGraphModel>
  </diagram>
</mxfile>
